solid OpenSCAD_Model
  facet normal 1 -0 0
    outer loop
      vertex 25 -3.1 0.7
      vertex 25 2.4 -0.7
      vertex 25 2.4 0.7
    endloop
  endfacet
  facet normal 1 0 0
    outer loop
      vertex 25 2.4 -0.7
      vertex 25 -3.1 0.7
      vertex 25 -3.1 -0.7
    endloop
  endfacet
  facet normal 0 1 0
    outer loop
      vertex 25 2.4 0.7
      vertex 25 2.4 -0.7
      vertex 14.4 2.4 0.7
    endloop
  endfacet
  facet normal 0 1 -0
    outer loop
      vertex 14.4 2.4 0.7
      vertex 13 2.4 2.69
      vertex 14.4 2.4 2.69
    endloop
  endfacet
  facet normal 0 1 0
    outer loop
      vertex 14.4 2.4 0.7
      vertex 13 2.4 -0.7
      vertex 13 2.4 2.69
    endloop
  endfacet
  facet normal 0 1 0
    outer loop
      vertex 13 2.4 -0.7
      vertex 14.4 2.4 0.7
      vertex 25 2.4 -0.7
    endloop
  endfacet
  facet normal 0 -1 0
    outer loop
      vertex 13 -3.1 2.69
      vertex 14.4 -3.1 0.7
      vertex 14.4 -3.1 2.69
    endloop
  endfacet
  facet normal 0 -1 0
    outer loop
      vertex 13 -3.1 -0.7
      vertex 14.4 -3.1 0.7
      vertex 13 -3.1 2.69
    endloop
  endfacet
  facet normal 0 -1 0
    outer loop
      vertex 25 -3.1 -0.7
      vertex 14.4 -3.1 0.7
      vertex 13 -3.1 -0.7
    endloop
  endfacet
  facet normal 0 -1 0
    outer loop
      vertex 14.4 -3.1 0.7
      vertex 25 -3.1 -0.7
      vertex 25 -3.1 0.7
    endloop
  endfacet
  facet normal -1 0 0
    outer loop
      vertex 13 -3.1 -0.7
      vertex 13 2.4 2.69
      vertex 13 2.4 -0.7
    endloop
  endfacet
  facet normal -1 -0 0
    outer loop
      vertex 13 2.4 2.69
      vertex 13 -3.1 -0.7
      vertex 13 -3.1 2.69
    endloop
  endfacet
  facet normal 0 0 -1
    outer loop
      vertex 13 -3.1 -0.7
      vertex 25 2.4 -0.7
      vertex 25 -3.1 -0.7
    endloop
  endfacet
  facet normal -0 0 -1
    outer loop
      vertex 25 2.4 -0.7
      vertex 13 -3.1 -0.7
      vertex 13 2.4 -0.7
    endloop
  endfacet
  facet normal -0 0 1
    outer loop
      vertex 14.4 2.4 0.7
      vertex 25 -3.1 0.7
      vertex 25 2.4 0.7
    endloop
  endfacet
  facet normal 0 0 1
    outer loop
      vertex 25 -3.1 0.7
      vertex 14.4 2.4 0.7
      vertex 14.4 -3.1 0.7
    endloop
  endfacet
  facet normal 1 -0 0
    outer loop
      vertex 14.4 -3.1 2.69
      vertex 14.4 2.4 0.7
      vertex 14.4 2.4 2.69
    endloop
  endfacet
  facet normal 1 0 0
    outer loop
      vertex 14.4 2.4 0.7
      vertex 14.4 -3.1 2.69
      vertex 14.4 -3.1 0.7
    endloop
  endfacet
  facet normal -0 0 1
    outer loop
      vertex 13 2.4 2.69
      vertex 14.4 -3.1 2.69
      vertex 14.4 2.4 2.69
    endloop
  endfacet
  facet normal 0 0 1
    outer loop
      vertex 14.4 -3.1 2.69
      vertex 13 2.4 2.69
      vertex 13 -3.1 2.69
    endloop
  endfacet
endsolid OpenSCAD_Model
